<svg xmlns="http://www.w3.org/2000/svg" xmlns:xlink="http://www.w3.org/1999/xlink" viewBox="0 0 123.53 133.1"><defs><style>.cls-1{fill:#0e133a;}.cls-2{fill:#1f2866;}.cls-3{fill:#5868a0;}.cls-4{fill:#405284;}.cls-5{fill:#6f77ad;}.cls-6{fill:#8894b7;}.cls-7{fill:url(#Degradado_sin_nombre_24);}.cls-8{fill:#fff;}.cls-9{fill:#282f89;}</style><linearGradient id="Degradado_sin_nombre_24" x1="46.7" y1="82.08" x2="64.34" y2="71.75" gradientUnits="userSpaceOnUse"><stop offset="0" stop-color="#060200" stop-opacity="0"/><stop offset="1" stop-color="#060200" stop-opacity="0.12"/></linearGradient></defs><title>Recurso 1</title><g id="Capa_2" data-name="Capa 2"><g id="Capa_1-2" data-name="Capa 1"><path class="cls-1" d="M60.76,12.91a54,54,0,1,0,54,54,54.18,54.18,0,0,0-54-54Z"/><path class="cls-2" d="M114.76,66.91a54.19,54.19,0,0,1-54,54v-108a54.18,54.18,0,0,1,54,54Z"/><path class="cls-1" d="M82.91,54.12V79.69L60.76,92.47,38.61,79.69V54.12L60.76,41.34Z"/><path class="cls-2" d="M82.91,54.12V79.69L60.76,92.47V41.34Z"/><path class="cls-3" d="M82.91,55.1l-6.33,2.67V76L70.25,89.67l6.33,15.19a41.28,41.28,0,0,0,24.94-32.69Z"/><path class="cls-4" d="M85.68,34.25,67.09,38.66l-6.33,10,15.82,9.13,24.94,14.4A40.43,40.43,0,0,0,85.68,34.25Z"/><path class="cls-5" d="M60.76,25.77a41,41,0,0,0-15.82,3.17L38.61,50.45l6.33,7.34,15.82-9.17L85.7,34.25a41.11,41.11,0,0,0-24.94-8.48Z"/><path class="cls-3" d="M85.7,34.25,60.76,48.62V25.77A41.11,41.11,0,0,1,85.7,34.25Z"/><path class="cls-6" d="M20,61.64l18.6,17.07L44.94,76V29A41.27,41.27,0,0,0,20,61.64Z"/><path class="cls-4" d="M44.94,76,20,61.64a39.86,39.86,0,0,0-.38,5.27A41.3,41.3,0,0,0,35.85,99.56l18.58-4.41,6.33-10Z"/><path class="cls-6" d="M76.58,76v28.85a41,41,0,0,1-40.75-5.31L60.76,85.19Z"/><path class="cls-5" d="M60.76,85.19,76.58,76v28.85A40.94,40.94,0,0,1,60.76,108Z"/><path class="cls-7" d="M51.16,58.51c-1.94,2.75-22.41,35-22.41,35L45,104,65.37,70.89Z"/><polygon class="cls-8" points="67.11 55.82 62.54 55.82 63.54 62.76 55.94 55.82 49.51 55.82 59.54 64.58 51.87 76.53 57.29 76.53 62.85 67.47 62.85 67.47 62.85 67.47 62.91 67.52 62.91 67.52 63.01 67.61 64.39 68.87 65.47 76.53 70.04 76.53 67.11 55.82"/><path class="cls-9" d="M4,42.05a62.72,62.72,0,0,1,115.48,0h2.75a65.25,65.25,0,0,0-121,0Z"/><path class="cls-9" d="M123.51,42.9h-4.57l-.22-.52a61.87,61.87,0,0,0-113.91,0l-.22.52H0l.48-1.17a66.11,66.11,0,0,1,122.55,0Zm-3.45-1.7H121a64.4,64.4,0,0,0-118.42,0h.91a63.57,63.57,0,0,1,116.6,0Z"/><path class="cls-9" d="M122.25,42.48H119.5a.44.44,0,0,1-.39-.26,62.29,62.29,0,0,0-114.69,0,.45.45,0,0,1-.4.26H1.28a.42.42,0,0,1-.36-.19.44.44,0,0,1,0-.4,65.68,65.68,0,0,1,121.76,0,.41.41,0,0,1,0,.4A.42.42,0,0,1,122.25,42.48Zm-2.47-.85h1.83a64.82,64.82,0,0,0-119.7,0H3.74a63.14,63.14,0,0,1,116,0Z"/><path class="cls-9" d="M122.25,43.33H119.5a1.28,1.28,0,0,1-1.17-.78,61.44,61.44,0,0,0-113.13,0A1.28,1.28,0,0,1,4,43.33H1.28A1.29,1.29,0,0,1,.09,41.57a66.53,66.53,0,0,1,123.34,0,1.29,1.29,0,0,1-.12,1.19A1.26,1.26,0,0,1,122.25,43.33ZM65.19,2.64a64,64,0,0,1,47.94,25.75A63.78,63.78,0,0,0,65.19,2.64Zm-6.86,0A63.82,63.82,0,0,0,10.39,28.39,64,64,0,0,1,58.33,2.64Z"/><path class="cls-9" d="M119.5,91.05A62.72,62.72,0,0,1,4,91.05H1.28a65.25,65.25,0,0,0,121,0Z"/><path class="cls-9" d="M61.76,132.68A65.92,65.92,0,0,1,.49,91.37L0,90.2H4.59l.22.52a61.87,61.87,0,0,0,113.91,0l.22-.52h4.57L123,91.37A65.94,65.94,0,0,1,61.76,132.68ZM2.55,91.9A64.39,64.39,0,0,0,121,91.9h-.91a63.57,63.57,0,0,1-116.6,0Z"/><path class="cls-9" d="M61.76,132.25a65.5,65.5,0,0,1-60.88-41,.42.42,0,0,1,.4-.58H4a.45.45,0,0,1,.4.25,62.29,62.29,0,0,0,114.69,0,.43.43,0,0,1,.39-.25h2.75a.44.44,0,0,1,.35.18.41.41,0,0,1,0,.4A65.49,65.49,0,0,1,61.76,132.25ZM1.91,91.48a64.83,64.83,0,0,0,119.7,0h-1.83a63.15,63.15,0,0,1-116,0Z"/><path class="cls-9" d="M61.76,133.1A66.36,66.36,0,0,1,.09,91.53a1.28,1.28,0,0,1,1.19-1.75H4a1.27,1.27,0,0,1,1.18.77,61.44,61.44,0,0,0,113.13,0,1.27,1.27,0,0,1,1.17-.77h2.75a1.27,1.27,0,0,1,1.18,1.75A66.34,66.34,0,0,1,61.76,133.1Zm51.37-28.39a63.93,63.93,0,0,1-47.94,25.75A63.78,63.78,0,0,0,113.13,104.71Zm-102.74,0a63.82,63.82,0,0,0,47.94,25.75A64,64,0,0,1,10.39,104.71Z"/></g></g></svg>