<?xml version="1.0" encoding="utf-8"?>
<!-- Generator: Adobe Illustrator 22.0.1, SVG Export Plug-In . SVG Version: 6.00 Build 0)  -->
<svg version="1.1" id="Capa_1" xmlns="http://www.w3.org/2000/svg" xmlns:xlink="http://www.w3.org/1999/xlink" x="0px" y="0px"
	 viewBox="0 0 401.6 256.6" style="enable-background:new 0 0 401.6 256.6;" xml:space="preserve">
<style type="text/css">
	.st0{fill:#282F89;}
	.st1{fill:#E76421;}
	.st2{fill:url(#SVGID_1_);}
	.st3{fill:url(#SVGID_2_);}
	.st4{fill:url(#SVGID_3_);}
	.st5{fill:url(#SVGID_4_);}
	.st6{fill:url(#SVGID_5_);}
	.st7{fill:url(#SVGID_6_);}
	.st8{fill:url(#SVGID_7_);}
	.st9{fill:#0E133A;}
	.st10{fill:#1F2866;}
	.st11{fill:#5868A0;}
	.st12{fill:#405284;}
	.st13{fill:#6F77AD;}
	.st14{fill:#8894B7;}
	.st15{fill:url(#SVGID_8_);}
	.st16{fill:#FFFFFF;}
	.st17{fill:none;}
	.st18{fill:#00057F;}
	.st19{font-family:'NexaLight';}
	.st20{font-size:22px;}
	.st21{font-family:'NexaBold';}
	.st22{font-size:24px;}
</style>
<title>Recurso 5</title>
<g id="Capa_2_1_">
	<g id="Capa_1-2">
		<path class="st0" d="M91.5,156c-0.8-2.9-3.4-4.9-6.4-4.8c-3.2,0-6.1,1.8-7.5,4.6l-22.9,44.5h11.2l5.6-10.9h17.2l2.5,10.9h10.9
			L91.5,156z M86.5,179.8H76.2l7.1-14.2L86.5,179.8z"/>
		<path class="st0" d="M143.6,156.9c-3-3.4-8-5.2-14.5-5.2h-6.2c-5.8-0.2-10.7,4.1-11.2,9.8l-5.5,38.8h10.7l2.3-16.7h5.9
			c13.2,0,19.8-4.7,21.3-15.1C147.1,163.7,146.1,159.8,143.6,156.9z M126.2,173.9h-5.6l1.5-11c0.2-1,0.3-1.4,1.7-1.4h4.4
			c3.3,0,5.4,0.6,6.4,1.8c0.8,0.9,1.1,2.4,0.8,4.3C134.8,172.1,132.1,173.9,126.2,173.9L126.2,173.9z"/>
		<polygon class="st0" points="151,151.7 149.6,161.6 162.5,161.6 156.9,200.4 167.7,200.4 173.2,161.6 186.2,161.6 187.6,151.7 		
			"/>
		<path class="st0" d="M220.6,151.7l-4.3,30.5c-0.9,6.5-3.7,9-10.1,9c-3.1,0-5.1-0.6-6.2-1.8s-1.5-3.5-1-6.9l4.3-30.7h-10.7l-4,28.7
			c-1,7.4-0.1,12.6,2.8,16c2.8,3.2,7.2,4.7,13.6,4.7c13,0,20-6.5,22-20.4l4-28.9L220.6,151.7z"/>
		<path class="st0" d="M273.4,168.4c0.7-4.8-0.2-8.7-2.7-11.6c-2.9-3.4-7.8-5.1-14.6-5.1h-6.2c-5.8-0.2-10.7,4.1-11.2,9.8l-5.5,38.8
			h10.8l2.4-17h5l9.3,17H273l-10.9-18.5C269,179.5,272.5,175.3,273.4,168.4z M262.4,167.5c-0.6,4.4-3.2,6.1-9.2,6.1h-5.6l1.5-10.7
			c0.2-1,0.3-1.4,1.7-1.4h4.4c3.4,0,5.4,0.6,6.4,1.7C262.5,164.2,262.7,165.5,262.4,167.5L262.4,167.5z"/>
		<path class="st0" d="M295.2,161.6h22.1l1.4-9.9h-25.5c-5.2,0-9.3,4-10.1,9.8l-5.5,38.9h34.2l1.4-9.9h-23.5l1.6-10.9h17.4l1.3-9.5
			h-17.4l1-7.1C293.7,162,294,161.6,295.2,161.6z"/>
		<path class="st1" d="M330.7,190.5c-0.6,0-0.8-0.1-0.9-0.2s-0.1-0.8-0.1-1l5.3-37.6h-10.8l-5.4,38.5c-0.5,2.6,0.1,5.3,1.8,7.4
			c1.8,1.9,4.4,2.9,7,2.8h20.5l1.4-9.9H330.7z"/>
		<path class="st1" d="M387,156c-0.8-2.9-3.4-4.9-6.5-4.8c-3.2,0-6.1,1.8-7.5,4.6l-22.9,44.6h11.2l5.6-10.9h17.2l2.5,10.9h10.9
			L387,156z M382,179.8h-10.3l7.1-14.2L382,179.8z"/>
		<polygon class="st1" points="11.2,200.4 21.9,200.4 19.5,184.1 37.4,200.4 52.5,200.4 29,179.8 47,151.7 34.2,151.7 21.2,173 
			21.2,173 21.2,173 21,172.9 21,172.9 20.8,172.7 17.6,169.7 15,151.7 4.3,151.7 		"/>
		
			<linearGradient id="SVGID_1_" gradientUnits="userSpaceOnUse" x1="173.6876" y1="84.7988" x2="167.4376" y2="97.1988" gradientTransform="matrix(1 0 0 -1 0 258)">
			<stop  offset="0" style="stop-color:#180767;stop-opacity:0"/>
			<stop  offset="1" style="stop-color:#080055"/>
		</linearGradient>
		<polygon class="st2" points="162.5,161.6 170.8,178 173.2,161.6 		"/>
		
			<linearGradient id="SVGID_2_" gradientUnits="userSpaceOnUse" x1="265.1551" y1="59.8826" x2="257.3051" y2="75.4426" gradientTransform="matrix(1 0 0 -1 0 258)">
			<stop  offset="0" style="stop-color:#180767;stop-opacity:0"/>
			<stop  offset="1" style="stop-color:#080055"/>
		</linearGradient>
		<path class="st3" d="M262.1,181.8c-3.5,1.1-7.1,1.6-10.8,1.6l20.7,15.5L262.1,181.8z"/>
		
			<linearGradient id="SVGID_3_" gradientUnits="userSpaceOnUse" x1="188.2246" y1="81.585" x2="204.79" y2="81.585" gradientTransform="matrix(1 0 0 -1 0 258)">
			<stop  offset="0" style="stop-color:#180767;stop-opacity:0"/>
			<stop  offset="1" style="stop-color:#080055"/>
		</linearGradient>
		<path class="st4" d="M201.3,190.3c-0.5-0.2-0.9-0.5-1.2-0.9c-1.1-1.3-1.5-3.5-1-6.9l4.3-30.7h-10.7l-4,28.7
			c-1,7.4-0.1,12.6,2.8,16c2.7,3.1,7.1,4.7,13.3,4.7C202.9,197.8,201.7,194.1,201.3,190.3z"/>
		
			<linearGradient id="SVGID_4_" gradientUnits="userSpaceOnUse" x1="131.0905" y1="78.9408" x2="120.1805" y2="79.4508" gradientTransform="matrix(1 0 0 -1 0 258)">
			<stop  offset="0" style="stop-color:#180767;stop-opacity:0"/>
			<stop  offset="1" style="stop-color:#080055"/>
		</linearGradient>
		<path class="st5" d="M140.6,179.6l-12.6-5.9c-2.5,0.2-4.9,0.2-7.4,0l-1.4,9.9c4,0.1,8,0,12-0.4
			C134.6,182.9,137.9,181.6,140.6,179.6z"/>
		
			<linearGradient id="SVGID_5_" gradientUnits="userSpaceOnUse" x1="77.5841" y1="92.3902" x2="85.5041" y2="97.0202" gradientTransform="matrix(1 0 0 -1 0 258)">
			<stop  offset="0" style="stop-color:#180767;stop-opacity:0"/>
			<stop  offset="1" style="stop-color:#080055"/>
		</linearGradient>
		<path class="st6" d="M81.1,152.2c-1.9,1.1-3.3,2.8-4.1,4.8L69.7,171l7.9,6l5.8-11.8L81.1,152.2z"/>
		
			<linearGradient id="SVGID_6_" gradientUnits="userSpaceOnUse" x1="-2302.6182" y1="2546.7866" x2="-2292.958" y2="2552.4368" gradientTransform="matrix(-1 0 0 1 -2271.23 -2379.9199)">
			<stop  offset="0" style="stop-color:#8C2A07;stop-opacity:0"/>
			<stop  offset="1" style="stop-color:#942D00"/>
		</linearGradient>
		<path class="st7" d="M28.9,179.8c1.1-1.5,12.3-19.2,12.3-19.2l-8.9-5.8L21.2,173L28.9,179.8z"/>
		<path class="st0" d="M397.8,121.7v24.8h2.5v-24.8c0-3.8-3.1-7-7-7h-49.8v2.6h49.8C395.8,117.2,397.8,119.2,397.8,121.7
			C397.8,121.7,397.8,121.7,397.8,121.7z"/>
		<path class="st0" d="M401.6,147.8h-5.1v-26.1c0-1.7-1.4-3.1-3.1-3.1h-51.1v-5.1h51.1c4.5,0,8.2,3.7,8.2,8.2V147.8z"/>
		<path class="st0" d="M3.8,146.5v-24.8c0-2.4,2-4.4,4.4-4.4h49.3v-2.6H8.2c-3.8,0-6.9,3.2-6.9,7v24.8L3.8,146.5z"/>
		<path class="st0" d="M5.1,147.8H0v-26.1c0-4.5,3.7-8.2,8.2-8.2h50.6v5.1H8.2c-1.7,0-3.1,1.4-3.1,3.1l0,0L5.1,147.8z"/>
		<path class="st0" d="M397.8,222v26.3c0,2.4-2,4.4-4.4,4.4h-49.8v2.6h49.8c3.8,0,6.9-3.1,7-6.9V222H397.8z"/>
		<path class="st0" d="M393.4,256.6h-51.1v-5.1h51.1c1.7,0,3.1-1.4,3.1-3.1v-27.6h5.1v27.6C401.6,252.9,397.9,256.6,393.4,256.6z"/>
		<path class="st0" d="M3.8,248.4V222H1.3v26.3c0,3.8,3.1,6.9,6.9,6.9c0,0,0,0,0,0h49.3v-2.6H8.2C5.8,252.7,3.8,250.8,3.8,248.4z"/>
		<path class="st0" d="M58.8,256.6H8.2c-4.5,0-8.2-3.7-8.2-8.2v-27.6h5.1v27.6c0,1.7,1.4,3.1,3.1,3.1h50.6V256.6z"/>
		
			<linearGradient id="SVGID_7_" gradientUnits="userSpaceOnUse" x1="371.3158" y1="89.5771" x2="381.5458" y2="95.5671" gradientTransform="matrix(1 0 0 -1 0 258)">
			<stop  offset="0" style="stop-color:#8C2A07;stop-opacity:0"/>
			<stop  offset="1" style="stop-color:#942D00"/>
		</linearGradient>
		<path class="st8" d="M376.5,152.3c-0.8,0.1-2,1.2-3.3,3l-11.1,21.8l8.4,5.2l8.4-16.7L376.5,152.3z"/>
		<path class="st9" d="M200.6,12.9c-29.8,0-54,24.2-54,54s24.2,54,54,54s54-24.2,54-54C254.5,37.1,230.3,13,200.6,12.9z"/>
		<path class="st10" d="M254.6,66.9c-0.1,29.8-24.2,53.9-54,54v-108C230.3,13,254.5,37.1,254.6,66.9z"/>
		<path class="st9" d="M222.7,54.1v25.6l-22.1,12.8l-22.2-12.8V54.1l22.1-12.8L222.7,54.1z"/>
		<path class="st10" d="M222.7,54.1v25.6l-22.1,12.8V41.3L222.7,54.1z"/>
		<path class="st11" d="M222.7,55.1l-6.3,2.7V76L210,89.7l6.3,15.2c13.5-5.7,23-18.1,24.9-32.7L222.7,55.1z"/>
		<path class="st12" d="M225.5,34.2l-18.6,4.4l-6.3,10l15.8,9.1l24.9,14.4C243.3,57.6,237.2,43.1,225.5,34.2L225.5,34.2z"/>
		<path class="st13" d="M200.6,25.8c-5.4,0-10.8,1.1-15.8,3.2l-6.3,21.5l6.3,7.3l15.8-9.2l24.9-14.4
			C218.3,28.8,209.6,25.8,200.6,25.8L200.6,25.8z"/>
		<path class="st11" d="M225.5,34.2l-24.9,14.4V25.8C209.6,25.8,218.3,28.8,225.5,34.2L225.5,34.2z"/>
		<path class="st14" d="M159.8,61.6l18.6,17.1l6.3-2.7V29C171.2,34.7,161.7,47.1,159.8,61.6L159.8,61.6z"/>
		<path class="st12" d="M184.7,76l-24.9-14.4c-2,14.6,4.1,29.1,15.9,37.9l18.6-4.4l6.3-10L184.7,76z"/>
		<path class="st14" d="M216.4,76v28.8c-13.6,5.7-29.1,3.6-40.8-5.3l24.9-14.4L216.4,76z"/>
		<path class="st13" d="M200.6,85.2l15.8-9.2v28.8c-5,2.1-10.4,3.2-15.8,3.2V85.2z"/>
		
			<linearGradient id="SVGID_8_" gradientUnits="userSpaceOnUse" x1="186.4892" y1="175.9213" x2="204.1192" y2="186.2513" gradientTransform="matrix(1 0 0 -1 0 258)">
			<stop  offset="0" style="stop-color:#060200;stop-opacity:0"/>
			<stop  offset="1" style="stop-color:#060200;stop-opacity:0.12"/>
		</linearGradient>
		<path class="st15" d="M191,58.5c-1.9,2.8-22.4,35-22.4,35l16.2,10.5l20.4-33.1L191,58.5z"/>
		<polygon class="st16" points="206.9,55.8 202.3,55.8 203.3,62.8 195.7,55.8 189.3,55.8 199.3,64.6 191.6,76.5 197.1,76.5 
			202.6,67.5 202.6,67.5 202.6,67.5 202.7,67.5 202.7,67.5 202.8,67.6 204.2,68.9 205.3,76.5 209.8,76.5 		"/>
		<path class="st0" d="M143.8,42C157.3,10.2,194.2-4.7,226,8.8c15,6.4,26.9,18.3,33.2,33.2h2.7C248.5,8.6,210.4-7.5,177,6
			c-16.4,6.6-29.4,19.6-36,36H143.8z"/>
		<path class="st0" d="M263.3,42.9h-4.6l-0.2-0.5c-13.4-31.5-49.7-46.1-81.1-32.8c-14.8,6.3-26.5,18-32.8,32.8l-0.2,0.5h-4.6
			l0.5-1.2C154,7.9,192.5-8.4,226.4,5.3c16.6,6.7,29.7,19.9,36.5,36.5L263.3,42.9z M259.8,41.2h0.9c-14-32.7-51.8-47.9-84.5-33.9
			C161,13.8,148.9,26,142.3,41.2h0.9c14-32.2,51.4-47,83.6-33C241.7,14.7,253.4,26.4,259.8,41.2z"/>
		<path class="st0" d="M262,42.5h-2.8c-0.2,0-0.3-0.1-0.4-0.3c-13.4-31.7-50-46.5-81.7-33c-14.9,6.3-26.7,18.1-33,33
			c-0.1,0.2-0.2,0.3-0.4,0.3H141c-0.1,0-0.3-0.1-0.4-0.2c-0.1-0.1-0.1-0.3,0-0.4C154.3,8.3,192.6-8,226.2,5.7
			c16.5,6.7,29.6,19.7,36.2,36.2c0.1,0.1,0.1,0.3,0,0.4C262.3,42.4,262.2,42.5,262,42.5z M259.5,41.6h1.8
			c-13.7-33.1-51.7-48.7-84.7-35c-15.8,6.6-28.4,19.1-35,35h1.8c13.8-32,50.9-46.8,83-33C241.3,15,253.1,26.8,259.5,41.6L259.5,41.6
			z"/>
		<path class="st0" d="M262,43.3h-2.8c-0.5,0-1-0.3-1.2-0.8C244.8,11.3,208.8-3.3,177.5,10c-14.7,6.2-26.4,17.9-32.6,32.6
			c-0.2,0.5-0.7,0.8-1.2,0.8H141c-0.7,0-1.3-0.6-1.3-1.3c0-0.2,0-0.3,0.1-0.5c13.8-34.1,52.6-50.5,86.6-36.7
			c16.7,6.8,29.9,20,36.7,36.7c0.3,0.7-0.1,1.4-0.7,1.7C262.3,43.3,262.2,43.3,262,43.3z M205,2.6c19,1,36.6,10.5,47.9,25.8
			C241.6,13.1,224,3.6,205,2.6z M198.1,2.6c-19,1-36.6,10.4-47.9,25.8C161.5,13.1,179.1,3.7,198.1,2.6L198.1,2.6z"/>
		<path class="st0" d="M259.3,91.1c-13.5,31.9-50.3,46.8-82.2,33.2c-15-6.4-26.9-18.3-33.2-33.2h-2.8c13.5,33.4,51.5,49.6,84.9,36.1
			c16.4-6.6,29.4-19.6,36.1-36.1H259.3z"/>
		<path class="st0" d="M201.6,132.7c-26.9,0-51.2-16.3-61.3-41.3l-0.5-1.2h4.6l0.2,0.5c13.3,31.5,49.7,46.1,81.1,32.8
			c14.8-6.3,26.5-18,32.8-32.8l0.2-0.5h4.6l-0.5,1.2C252.8,116.4,228.5,132.7,201.6,132.7z M142.3,91.9c14,32.7,51.8,47.9,84.5,33.9
			c15.2-6.5,27.4-18.7,33.9-33.9h-0.9c-14,32.2-51.4,47-83.6,33c-14.8-6.4-26.5-18.2-33-33H142.3z"/>
		<path class="st0" d="M201.6,132.2c-26.8,0.1-50.9-16.2-60.9-41c-0.1-0.2,0-0.5,0.2-0.5c0.1,0,0.1,0,0.2,0h2.8
			c0.2,0,0.3,0.1,0.4,0.2c13.4,31.7,50,46.5,81.7,33c14.9-6.3,26.7-18.1,33-33c0.1-0.2,0.2-0.2,0.4-0.2h2.7c0.2,0,0.4,0.2,0.4,0.4
			c0,0.1,0,0.1,0,0.2C252.4,116.1,228.3,132.3,201.6,132.2z M141.7,91.5c13.8,33.1,51.7,48.7,84.8,34.9
			c15.8-6.6,28.4-19.1,34.9-34.9h-1.8c-13.8,32-50.9,46.8-83,33c-14.8-6.4-26.6-18.2-33-33H141.7z"/>
		<path class="st0" d="M201.6,133.1c-27.1,0-51.5-16.4-61.7-41.6c-0.3-0.7,0.1-1.4,0.7-1.7c0.1-0.1,0.3-0.1,0.5-0.1h2.8
			c0.5,0,1,0.3,1.2,0.8c13.2,31.2,49.3,45.8,80.5,32.6c14.7-6.2,26.4-17.9,32.6-32.6c0.2-0.5,0.7-0.8,1.2-0.8h2.7
			c0.7,0,1.3,0.6,1.3,1.3c0,0.2,0,0.3-0.1,0.5C253.1,116.7,228.7,133.1,201.6,133.1z M252.9,104.7C241.6,120,224,129.4,205,130.5
			C224,129.5,241.6,120,252.9,104.7z M150.2,104.7c11.3,15.3,28.9,24.8,47.9,25.8C179.1,129.4,161.5,120,150.2,104.7z"/>
	</g>
</g>
<rect x="73.3" y="207.6" class="st17" width="265" height="53"/>
<text transform="matrix(1 0 0 1 113.7837 222.9795)"><tspan x="0" y="0" class="st18 st19 st20">CRYPTO WALLET</tspan><tspan x="-32.8" y="28.8" class="st18 st21 st22">PAYMENT GATEWAY</tspan></text>
</svg>
